HIERARCHY
ROOT pelvis
{
  OFFSET 0 100 0
  CHANNELS 6 Xposition Yposition Zposition Zrotation Xrotation Yrotation
  JOINT pelvis_right_femur
  {
    OFFSET -10.78128 -3.44521 -0.5502486
    CHANNELS 3 Zrotation Xrotation Yrotation
    JOINT right_femur_tibia
    {
      OFFSET -0.8047443 -44.0398 -0.1307829
      CHANNELS 3 Zrotation Xrotation Yrotation
      JOINT right_tibia_foot
      {
        OFFSET 3.006224 -47.83518 -5
        CHANNELS 3 Zrotation Xrotation Yrotation
        End Site
        {
          OFFSET 0 -5 15
        }
      }
    }
  }
  JOINT pelvis_left_femur
  {
    OFFSET 10.78128 -3.44521 -0.5502486
    CHANNELS 3 Zrotation Xrotation Yrotation
    JOINT left_femur_tibia
    {
      OFFSET 0.8047443 -44.0398 -0.1307829
      CHANNELS 3 Zrotation Xrotation Yrotation
      JOINT left_tibia_foot
      {
        OFFSET -4.370144 -48.10324 -4.275266
        CHANNELS 3 Zrotation Xrotation Yrotation
        End Site
        {
          OFFSET 0 -5 15
        }
      }
    }
  }
  JOINT pelvis_spine1
  {
    OFFSET 0 6.468898 -3.129235
    CHANNELS 3 Zrotation Xrotation Yrotation
    JOINT spine1
    {
      OFFSET 0 23.15396 4.99043
      CHANNELS 3 Zrotation Xrotation Yrotation
      JOINT spine2
      {
        OFFSET 0 20.79997 -5.064912
        CHANNELS 3 Zrotation Xrotation Yrotation
        JOINT neck
        {
          OFFSET 0 14.38658 9.616178
          CHANNELS 3 Zrotation Xrotation Yrotation
          End Site
          {
            OFFSET 0 20 0
          }
        }
      }
      JOINT right_manubrium
      {
        OFFSET -5.722621 16.35077 3.967754
        CHANNELS 3 Zrotation Xrotation Yrotation
        JOINT right_clavicle
        {
          OFFSET -13.16364 1.694482 -4.693211
          CHANNELS 3 Zrotation Xrotation Yrotation
          JOINT right_humerus
          {
            OFFSET -28.5034 -0.3100689 -2.792744
            CHANNELS 3 Zrotation Xrotation Yrotation
            JOINT right_radius
            {
              OFFSET -25.15693 0.02248979 -1.271978
              CHANNELS 3 Zrotation Xrotation Yrotation
              End Site
              {
                OFFSET -15 0 0
              }
            }
          }
        }
      }
      JOINT left_manubrium
      {
        OFFSET 5.722621 16.35077 3.967754
        CHANNELS 3 Zrotation Xrotation Yrotation
        JOINT left_clavicle
        {
          OFFSET 13.16364 1.694482 -4.693211
          CHANNELS 3 Zrotation Xrotation Yrotation
          JOINT left_humerus
          {
            OFFSET 29.39168 -1.063119 -2.237045
            CHANNELS 3 Zrotation Xrotation Yrotation
            JOINT left_radius
            {
              OFFSET 24.59957 -0.9528479 0.9047498
              CHANNELS 3 Zrotation Xrotation Yrotation
              End Site
              {
                OFFSET 15 -0 -0
              }
            }
          }
        }
      }
    }
  }
}
MOTION
Frames: 15
Frame Time: 0.0416666666667
50.91714 100.5368 269.3912 3.510274 -9.197781 3.837949 -0.377608 5.58571 4.213222 -0 30.3027 -0 3.969174 -10.46023 -4.325857 -5.11386 -5.144968 -7.79663 -0 22.02636 -0 -6.725797 -12.03718 16.7393 -2.346376 -0.3413087 6.502222 -1.319211 8.897973 -3.405635 2.102282 23.06842 5.719353 1.295775 -14.87323 8.260021 0.9262343 -17.51737 10.27132 86.29366 22.21753 -12.88288 -0 0 18.99644 -23.59384 13.5663 11.31793 5.075975 -15.72183 -4.038585 -88.86055 25.26807 16.48998 0 0 -14.26215 -2.61445 7.235849 15.43125
51.89249 100.6206 275.3138 3.653475 -9.2204 4.614695 -0.5578608 3.252572 3.797616 -0 31.24626 -0 3.508417 -10.08044 -4.901402 -5.530648 -2.452967 -8.165419 -0 22.0595 -0 -6.6268 -12.78654 16.42434 -2.517679 -0.3256104 6.057389 -1.192877 8.721195 -3.658219 2.190204 23.26066 5.670904 1.197273 -14.82545 8.417188 0.8964164 -16.88655 10.01799 86.96335 22.28759 -13.64271 -0 0 17.81392 -22.99794 13.43132 10.8811 5.102656 -16.01646 -4.09371 -87.96246 25.54781 14.87084 0 0 -14.85278 -2.237815 7.565549 14.95795
52.84915 100.7564 281.2213 3.772556 -9.199005 5.419977 -0.6768114 0.9257798 3.418524 -0 31.40705 -0 2.961839 -9.766382 -5.449048 -5.850376 0.2295683 -8.470617 -0 22.41031 -0 -6.564702 -13.46046 16.11646 -2.662415 -0.3134346 5.609575 -1.036188 8.543253 -3.930684 2.291373 23.4422 5.596645 1.117233 -14.80617 8.54431 0.8453517 -16.23485 9.772217 87.64356 22.38619 -14.45544 -0 0 16.53601 -22.34222 13.28344 10.39957 5.15505 -16.36695 -4.132197 -87.04904 25.78978 13.16411 0 0 -15.54827 -1.799052 7.935845 14.39599
53.77911 100.9137 287.1404 3.860568 -9.13735 6.213488 -0.7286253 -1.3048 3.091218 -0 30.76988 -0 2.33587 -9.542478 -5.952229 -6.065452 2.793666 -8.711449 -0 23.04153 -0 -6.537617 -14.04674 15.8308 -2.777733 -0.3020802 5.174003 -0.8559715 8.363649 -4.209699 2.405673 23.61042 5.49566 1.056844 -14.8161 8.638562 0.7666476 -15.58581 9.537778 88.30877 22.50339 -15.27943 -0 0 15.21087 -21.64342 13.11769 9.88842 5.232713 -16.75609 -4.149145 -86.15822 25.98973 11.4311 0 0 -16.31298 -1.309028 8.339031 13.75851
54.67587 101.0613 293.0957 3.913469 -9.044942 6.957625 -0.7121116 -3.352307 2.824171 -0 29.40053 -0 1.641461 -9.418413 -6.397898 -6.178245 5.14036 -8.893217 -0 23.9102 -0 -6.538749 -14.53426 15.58381 -2.863089 -0.2887984 4.764269 -0.660405 8.184665 -4.481935 2.530854 23.76503 5.370013 1.016081 -14.8545 8.699409 0.6592466 -14.96342 9.318662 88.93542 22.63157 -16.07269 -0 0 13.88652 -20.92249 12.93072 9.366949 5.331488 -17.16373 -4.142453 -85.32875 26.14679 9.739925 0 0 -17.09857 -0.7822363 8.765359 13.06525
55.53548 101.1721 299.1052 3.931037 -8.936885 7.620099 -0.6304472 -5.115493 2.619896 -0 27.43822 -0 0.8941586 -9.392746 -6.772862 -6.197865 7.16165 -9.024223 -0 24.96972 -0 -6.556273 -14.90899 15.39723 -2.919561 -0.2699891 4.39468 -0.4597433 8.01167 -4.731942 2.662555 23.90824 5.224449 0.994165 -14.91981 8.727852 0.5265631 -14.39587 9.119521 89.49753 22.76481 -16.78585 -0 0 12.61664 -20.20648 12.72002 8.860773 5.443237 -17.56415 -4.112122 -84.60622 26.2631 8.175029 0 0 -17.83665 -0.2383848 9.203265 12.34425
56.35755 101.2265 305.1764 3.917117 -8.832818 8.175661 -0.4907053 -6.472157 2.475608 -0 25.08182 -0 0.1135257 -9.456279 -7.061845 -6.137788 8.73241 -9.113434 -0 26.1716 -0 -6.573966 -15.15246 15.29934 -2.949295 -0.2409018 4.081281 -0.2663361 7.852899 -4.94144 2.794613 24.0445 5.065869 0.9899103 -15.0101 8.725854 0.3753919 -13.91678 8.945679 89.96481 22.89869 -17.3597 -0 0 11.46248 -19.52847 12.4836 8.401892 5.556178 -17.9256 -4.059711 -84.04463 26.34376 6.839531 0 0 -18.43791 0.2973268 9.640074 11.63159
57.14559 101.2147 311.3044 3.878543 -8.753814 8.606626 -0.3029549 -7.294653 2.383932 -0 22.55906 -0 -0.6789277 -9.595256 -7.249043 -6.013734 9.724848 -9.168687 -0 27.46795 -0 -6.573905 -15.24483 15.3207 -2.95508 -0.1963369 3.840179 -0.09312598 7.718027 -5.091532 2.920037 24.17949 4.902246 1.001884 -15.12324 8.695988 0.2142735 -13.56119 8.802307 90.3059 23.03015 -17.7323 -0 0 10.48655 -18.92339 12.22058 8.024372 5.656712 -18.21437 -3.987948 -83.6991 26.39606 5.841953 0 0 -18.80497 0.7971194 10.06364 10.96693
57.90629 101.1371 317.4726 3.822877 -8.717844 8.902152 -0.07891268 -7.481312 2.334104 -0 20.08333 -0 -1.462988 -9.794085 -7.322223 -5.841521 10.03932 -9.19567 -0 28.81439 -0 -6.540779 -15.17119 15.48574 -2.940038 -0.132109 3.683902 0.0488814 7.615818 -5.166945 3.032459 24.3184 4.741154 1.028466 -15.25694 8.641261 0.05149872 -13.35781 8.693124 90.49566 23.15702 -17.85304 -0 0 9.740314 -18.42088 11.93183 7.756936 5.732406 -18.4021 -3.900318 -83.613 26.42719 5.271803 0 0 -18.85529 1.236146 10.46432 10.38547
58.64821 101.0024 323.6566 3.756185 -8.736226 9.056929 0.169243 -6.982273 2.313432 -0 17.82079 -0 -2.222429 -10.03613 -7.27594 -5.635443 9.629941 -9.198176 -0 30.17029 -0 -6.465387 -14.92695 15.80574 -2.907414 -0.04639746 3.618381 0.1524998 7.552242 -5.159407 3.12725 24.46458 4.588764 1.067981 -15.40889 8.565057 -0.1064188 -13.32281 8.619513 90.52144 23.27709 -17.6941 -0 0 9.254417 -18.04002 11.62005 7.617306 5.774541 -18.4718 -3.800671 -83.80812 26.44086 5.180098 0 0 -18.53962 1.597386 10.83603 9.911265
59.38041 100.8244 329.8286 3.681828 -8.812229 9.070101 0.4291963 -5.808268 2.308272 -0 15.88276 -0 -2.94604 -10.30116 -7.111817 -5.407787 8.513784 -9.179609 -0 31.49423 -0 -6.345573 -14.52006 16.27603 -2.860528 0.05942004 3.641876 0.2146867 7.52995 -5.068572 3.201788 24.61869 4.449872 1.11898 -15.57717 8.47125 -0.2553817 -13.45799 8.580403 90.38558 23.38692 -17.25416 -0 0 9.036258 -17.78873 11.28915 7.611093 5.779224 -18.41977 -3.693069 -84.28234 26.43471 5.57371 0 0 -17.84806 1.87393 11.17604 9.554498
60.11174 100.6202 335.9621 3.600262 -8.940894 8.944927 0.6877718 -4.029163 2.30411 -0 14.33768 -0 -3.627424 -10.5593 -6.836658 -5.16951 6.770618 -9.145227 -0 32.73418 -0 -6.185012 -13.97155 16.87597 -2.802862 0.1801004 3.745001 0.2358323 7.548827 -4.901451 3.255118 24.77846 4.32882 1.1807 -15.76081 8.364574 -0.3938128 -13.75194 8.57252 90.10532 23.48122 -16.55738 -0 0 9.072297 -17.66655 10.94343 7.733879 5.747501 -18.25512 -3.582071 -85.01075 26.39954 6.418598 0 0 -16.80785 2.069524 11.48403 9.311529
60.85057 100.4071 342.0365 3.509487 -9.109027 8.689252 0.9297374 -1.770742 2.285203 -0 13.22916 -0 -4.264548 -10.76377 -6.459963 -4.93166 4.541311 -9.104418 -0 33.81601 -0 -5.990996 -13.31606 17.56952 -2.738191 0.3058418 3.910916 0.2188516 7.606886 -4.671582 3.287426 24.93839 4.230695 1.253539 -15.96054 8.251121 -0.5226516 -14.18175 8.590618 89.71214 23.55292 -15.65152 -0 0 9.331356 -17.6682 10.58707 7.974056 5.68519 -17.9987 -3.47329 -85.94671 26.32056 7.644846 0 0 -15.47949 2.198608 11.76133 9.165612
61.60489 100.2021 348.0412 3.406066 -9.295941 8.316467 1.137555 0.7931419 2.235029 -0 12.58917 -0 -4.859433 -10.84847 -5.99195 -4.706662 2.020375 -9.071809 -0 34.63914 -0 -5.771923 -12.60075 18.30749 -2.670542 0.4223385 4.11623 0.1684285 7.701045 -4.397876 3.299605 25.09002 4.161958 1.339245 -16.17896 8.138499 -0.6451713 -14.71526 8.627766 89.24963 23.59432 -14.6044 -0 0 9.768387 -17.78627 10.22388 8.315265 5.602296 -17.68127 -3.373711 -87.02384 26.18079 9.153436 0 0 -13.95085 2.285263 12.01031 9.088659
62.38245 100.0201 353.9775 3.286765 -9.476528 7.846122 1.293482 3.463136 2.138616 -0 12.44011 -0 -5.417728 -10.73714 -5.442589 -4.508185 -0.5693699 -9.065752 -0 35.08967 -0 -5.535015 -11.87946 19.03435 -2.603808 0.5128324 4.334099 0.09032111 7.827628 -4.10212 3.292975 25.2232 4.129697 1.440407 -16.41983 8.03506 -0.7661904 -15.31527 8.676135 88.76742 23.5991 -13.49502 -0 0 10.33069 -18.01221 9.857254 8.738558 5.511315 -17.33898 -3.291092 -88.16369 25.96617 10.82959 0 0 -12.32481 2.359242 12.23403 9.045911
